/* XPM */
static char * C:\Users\Daniel\Desktop\yiffcoin\windows\src\share\pixmaps\yiffcoin32_xpm[] = {
"32 32 255 2",
"  	c None",
". 	c #000000",
"+ 	c #000003",
"@ 	c #04041C",
"# 	c #07072E",
"$ 	c #09093B",
"% 	c #09093F",
"& 	c #090938",
"* 	c #06062A",
"= 	c #030316",
"- 	c #030315",
"; 	c #0A093E",
"> 	c #0D0D57",
", 	c #0E0D59",
"' 	c #0D0E5A",
") 	c #0E0E59",
"! 	c #0D0D58",
"~ 	c #0D0D54",
"{ 	c #080835",
"] 	c #01010A",
"^ 	c #010108",
"/ 	c #0A0A41",
"( 	c #0D0D56",
"_ 	c #0D0D59",
": 	c #0E0E5C",
"< 	c #0E0E5E",
"[ 	c #0F0F61",
"} 	c #0F0F63",
"| 	c #0F0E60",
"1 	c #0E0F5F",
"2 	c #080834",
"3 	c #04041B",
"4 	c #0E0E5D",
"5 	c #0F0F65",
"6 	c #101068",
"7 	c #10106A",
"8 	c #11106E",
"9 	c #10106D",
"0 	c #10116D",
"a 	c #11116E",
"b 	c #10106B",
"c 	c #0C0C4D",
"d 	c #01010B",
"e 	c #050521",
"f 	c #0E0E5A",
"g 	c #0E0E5F",
"h 	c #111172",
"i 	c #121176",
"j 	c #080837",
"k 	c #13137C",
"l 	c #13137B",
"m 	c #09093E",
"n 	c #121276",
"o 	c #111171",
"p 	c #11116D",
"q 	c #0F0F64",
"r 	c #0D0E59",
"s 	c #02020E",
"t 	c #04041A",
"u 	c #0E0E5B",
"v 	c #11106D",
"w 	c #111173",
"x 	c #121277",
"y 	c #141483",
"z 	c #141484",
"A 	c #141587",
"B 	c #13137E",
"C 	c #13137A",
"D 	c #11106C",
"E 	c #0F1067",
"F 	c #0D0D53",
"G 	c #0C0D54",
"H 	c #11116F",
"I 	c #121275",
"J 	c #13137F",
"K 	c #14158B",
"L 	c #0B0B4B",
"M 	c #16168F",
"N 	c #15158C",
"O 	c #0C0C52",
"P 	c #15158A",
"Q 	c #13127A",
"R 	c #0F0F67",
"S 	c #0F0F60",
"T 	c #0B0B4A",
"U 	c #100F67",
"V 	c #13137D",
"W 	c #161691",
"X 	c #04041F",
"Y 	c #10106E",
"Z 	c #16168D",
"` 	c #141482",
" .	c #10116E",
"..	c #100F66",
"+.	c #121279",
"@.	c #141487",
"#.	c #07072F",
"$.	c #121278",
"%.	c #0C0B4C",
"&.	c #15158D",
"*.	c #121274",
"=.	c #10106C",
"-.	c #0D0D55",
";.	c #000002",
">.	c #0F0E61",
",.	c #15158B",
"'.	c #131382",
").	c #04041E",
"!.	c #0B0B49",
"~.	c #0C0C4F",
"{.	c #151589",
"].	c #12127A",
"^.	c #101069",
"/.	c #0E0E60",
"(.	c #060628",
"_.	c #17179A",
":.	c #080836",
"<.	c #0E0F63",
"[.	c #040521",
"}.	c #161690",
"|.	c #151587",
"1.	c #14137E",
"2.	c #15158E",
"3.	c #0A0A40",
"4.	c #1D1DBA",
"5.	c #06062E",
"6.	c #1B1CB2",
"7.	c #1C1CBA",
"8.	c #111170",
"9.	c #101067",
"0.	c #010105",
"a.	c #171793",
"b.	c #06072F",
"c.	c #000004",
"d.	c #1D1DBC",
"e.	c #1D1DBF",
"f.	c #1B1BB2",
"g.	c #1E1EC7",
"h.	c #1E1EC6",
"i.	c #1D1DC1",
"j.	c #0A0A43",
"k.	c #141486",
"l.	c #030318",
"m.	c #10116C",
"n.	c #14137F",
"o.	c #161693",
"p.	c #0D0C54",
"q.	c #08083B",
"r.	c #1D1DC0",
"s.	c #0C0C53",
"t.	c #050525",
"u.	c #2122DA",
"v.	c #0F106A",
"w.	c #050522",
"x.	c #1919A0",
"y.	c #161692",
"z.	c #151588",
"A.	c #10116B",
"B.	c #050524",
"C.	c #141481",
"D.	c #171794",
"E.	c #18189F",
"F.	c #0F0F66",
"G.	c #1B1BB1",
"H.	c #050523",
"I.	c #070732",
"J.	c #2121D5",
"K.	c #171797",
"L.	c #04041D",
"M.	c #2020D5",
"N.	c #141485",
"O.	c #080833",
"P.	c #18189B",
"Q.	c #11116C",
"R.	c #0F0F62",
"S.	c #0E0D58",
"T.	c #0E0D5A",
"U.	c #131481",
"V.	c #161794",
"W.	c #18189D",
"X.	c #1A1AA9",
"Y.	c #0D0D5B",
"Z.	c #2020D2",
"`.	c #09093D",
" +	c #0B0A47",
".+	c #2020D0",
"++	c #1E1EC1",
"@+	c #1A1AAB",
"#+	c #18189C",
"$+	c #131380",
"%+	c #17179C",
"&+	c #1A1AAD",
"*+	c #02010C",
"=+	c #050526",
"-+	c #1F1EC7",
";+	c #2020CF",
">+	c #1F1FCA",
",+	c #060527",
"'+	c #1A1AAA",
")+	c #111275",
"!+	c #111273",
"~+	c #151586",
"{+	c #171899",
"]+	c #1A1AA8",
"^+	c #1D1EBF",
"/+	c #1D1EC2",
"(+	c #1D1DBE",
"_+	c #1A19A6",
":+	c #171798",
"<+	c #151485",
"[+	c #030314",
"}+	c #161795",
"|+	c #1919A4",
"1+	c #050422",
"2+	c #0A0A45",
"3+	c #1D1CBA",
"4+	c #1C1CB8",
"5+	c #171694",
"6+	c #17179B",
"7+	c #06062C",
"8+	c #16168E",
"9+	c #1B1BB4",
"0+	c #050520",
"a+	c #0A0942",
"b+	c #1B1BB0",
"c+	c #1919A3",
"d+	c #171796",
"e+	c #151487",
"f+	c #0A0A42",
"g+	c #12137A",
"h+	c #02010D",
"i+	c #17189A",
"j+	c #040420",
"k+	c #090940",
"l+	c #1919A8",
"m+	c #18189A",
"n+	c #141589",
"o+	c #0F1068",
"p+	c #111274",
"q+	c #000007",
"r+	c #0C0C50",
"s+	c #0F0E5F",
"t+	c #04031A",
"u+	c #121273",
"v+	c #0E0F60",
"w+	c #131381",
"x+	c #101066",
"y+	c #0E0E58",
"z+	c #131379",
"A+	c #020211",
"B+	c #131278",
"C+	c #121272",
"D+	c #0F0F5F",
"E+	c #000105",
"F+	c #030317",
"                        . . . . . . . .                         ",
"                  . . + @ # $ % % & * = . . .                   ",
"              . . - ; > > > , ' ) ! > > ~ { ] . .               ",
"            . ^ / ( _ : < [ } } } } | 1 : > > 2 . .             ",
"          . 3 ~ > 4 [ 5 6 7 8 9 0 a b 6 5 [ : > c d .           ",
"        . e ( f g 5 7 a h i j k l m n o p 7 q g r ~ s .         ",
"      . t ( u [ 6 v w x l y . z A . B C x h D E | _ F ^ .       ",
"    . ^ G ) [ 6 H I l J z K L M N O P y J Q I a R S _ T . .     ",
"    . / > S U H n V y P W X . Y Z . = W P ` k I  ...< > * .     ",
"  . - ( 4 5 p I V y +.F @.. . #.( . . $.%.&.y l *.=.q u -.;..   ",
"  . m _ >.7 w l y ,.9 '.l . . ).!.. . g ~.{.{.` ].h ^./.> (..   ",
"  + ( : 5 a x J {.J . ~._.. . :./.. . z <.[.}.|.1.I 9 q f T .   ",
". @ > < 6 o l z 2.3.. ^ 4.5.. W 6.. 3 7.^ . : N y +.8.9.4 ! 0.. ",
". # ! [ b *.B |.a.b.. c.d.e.f.g.h.h.i.7.. . j.}.k.k w 7 | ! l.. ",
". $ _ } m.n n.P o.p.. q.r.s.t.u.v.+ w.x.t . : y.z.J I A.[ ! B.. ",
". % _ } 9 x C.P D.E.F.G.H.I.J.K.L.M.% . N.O.P.o.{.J I Q.R.S.(.. ",
". m T.} p n U.P V.W.X.Y.. i.Z.`. +.+++. ~.@+#+o.{.J I =.R.! (.. ",
". & S.} =.n $+{.y.%+&+*+=+-+;+B.L >+h.H.,+'+P.y.z.B )+b [ ! e . ",
". * > S b !+B ~+}.{+]+. # ^+g.H.!./+(+# t._+:+M <+k h 7 /.! [+. ",
". = > g 6 o C y &.}+|++ = 4.(+1+2+3+4+X :.E.5+,.y +.8.E 4 ! . . ",
"  . ~ : 5 a x J |.}.6+7+. 8+9+0+a+b+c+. x d+M e+B n 9 } f f+.   ",
"  . { ! S ^.h g+` P }.N.. h+i+j+k+l+e j m+}.n+C.+.o o+/.! )..   ",
"  . ] > : 5 m.p+l y P }.l = . + ] q+s.:+M {.` l *.b q u r+. .   ",
"    . 2 > s+9.8 I k ` |.,.D.,.= b.:+}.,.k.C.l *.p ..< ! @ .     ",
"    . . c ) | 6 a *.].J y N.Z t+* P k.` B +.u+0 U 1 ! `..       ",
"      . d G ' v+..=.h n ].V y - B.w+k +.n o =.x+g , T . .       ",
"        . s F y+g q ^.0 8.w z+A+L.B+C+8.9 6 q < ! T + .         ",
"          . ^ T > : v+q U ^.8.s `.=.^.x+q g u S.`.. .           ",
"            . . * -.> u < D+R.5 } [ D+4 ' ! r+@ . .             ",
"              . . ;.(.T ! ! ! ! ! ! ! ! f+).. .                 ",
"                  . . . E+F+B.(.(.e [+. . . .                   ",
"                        . . . . . . . .                         "};
