/* XPM */
static char * C:\Users\Daniel\Desktop\yiffcoin\windows\src\share\pixmaps\yiffcoin16_xpm[] = {
"16 16 125 2",
"  	c None",
". 	c #000000",
"+ 	c #030212",
"@ 	c #04041B",
"# 	c #02020F",
"$ 	c #060628",
"% 	c #0D0D55",
"& 	c #0E0E5E",
"* 	c #0F0E5F",
"= 	c #0E0F5F",
"- 	c #0D0D52",
"; 	c #050522",
"> 	c #000004",
", 	c #0C0C4C",
"' 	c #100F68",
") 	c #111170",
"! 	c #0F0F64",
"~ 	c #101066",
"{ 	c #101067",
"] 	c #0B0A44",
"^ 	c #0B0C4B",
"/ 	c #0E0E61",
"( 	c #10106E",
"_ 	c #131379",
": 	c #151588",
"< 	c #0D0D57",
"[ 	c #151586",
"} 	c #131279",
"| 	c #0E0F61",
"1 	c #0A0A42",
"2 	c #11106F",
"3 	c #13137D",
"4 	c #121175",
"5 	c #0C0C4D",
"6 	c #080839",
"7 	c #0B0B46",
"8 	c #12127A",
"9 	c #13137C",
"0 	c #10116E",
"a 	c #04041D",
"b 	c #101068",
"c 	c #15158B",
"d 	c #0B0B4E",
"e 	c #0A0A40",
"f 	c #020213",
"g 	c #060627",
"h 	c #080834",
"i 	c #0D0E58",
"j 	c #15158D",
"k 	c #131278",
"l 	c #0F1066",
"m 	c #0C0B4C",
"n 	c #020312",
"o 	c #0E0E5D",
"p 	c #11116E",
"q 	c #141481",
"r 	c #1919A5",
"s 	c #13137F",
"t 	c #171797",
"u 	c #1818A1",
"v 	c #121172",
"w 	c #131480",
"x 	c #11116D",
"y 	c #010105",
"z 	c #111172",
"A 	c #151585",
"B 	c #0C0C50",
"C 	c #0C0C53",
"D 	c #1919A4",
"E 	c #080837",
"F 	c #07072E",
"G 	c #16158C",
"H 	c #141484",
"I 	c #111271",
"J 	c #0E0F60",
"K 	c #030211",
"L 	c #121271",
"M 	c #141485",
"N 	c #171798",
"O 	c #111173",
"P 	c #101069",
"Q 	c #13137E",
"R 	c #16168F",
"S 	c #121278",
"T 	c #111270",
"U 	c #0F0F60",
"V 	c #020310",
"W 	c #0F0E5E",
"X 	c #171793",
"Y 	c #121274",
"Z 	c #111171",
"` 	c #121272",
" .	c #171692",
"..	c #131380",
"+.	c #000003",
"@.	c #0C0C52",
"#.	c #121379",
"$.	c #151589",
"%.	c #13127C",
"&.	c #030318",
"*.	c #07072F",
"=.	c #161795",
"-.	c #141488",
";.	c #131377",
">.	c #0F0F66",
",.	c #0B0B47",
"'.	c #12127C",
").	c #050520",
"!.	c #070732",
"~.	c #151587",
"{.	c #10106D",
"].	c #030317",
"^.	c #0A0A44",
"/.	c #0F0F61",
"(.	c #141480",
"_.	c #0D0D58",
":.	c #090939",
"<.	c #0E0E5F",
"[.	c #10116D",
"}.	c #100F66",
"|.	c #0F0F5F",
"1.	c #0B0B4C",
"2.	c #0F0F62",
"3.	c #020311",
"4.	c #020210",
"          . + @ @ # .           ",
"      . $ % & * = & - ; .       ",
"    > , = ' ) ! ~ ) { = ] .     ",
"  . ^ / ( _ : % < [ } ( | 1 .   ",
"  $ * 2 3 4 5 ; 6 7 8 9 0 * a   ",
". % b _ c d e f g h i j k l m . ",
"n o p q ~ . r s t u . v w x & y ",
"@ = z A c B C D B E F G H I J K ",
"@ = L M N O P Q R P S t H T U V ",
"# W p q X B Y Z M ` '  ...x & +.",
". @.{ #.$.%.&.P s *.=.-.;.>.,.. ",
"  ; = 0 '.c ) ).!.~.-.9 {.U ].  ",
"  . ^./.p k (.B _.(.S {.U :..   ",
"    . 1 <.{ x e B [.}.|.:..     ",
"      . a 1.& 2./.& ,.]..       ",
"          . y 3.4.+..           "};
