/* XPM */
static char * C:\Users\Daniel\Desktop\yiffcoin\windows\src\share\pixmaps\yiffcoin64_xpm[] = {
"64 64 520 2",
"  	c None",
". 	c #000000",
"+ 	c #02020E",
"@ 	c #04041A",
"# 	c #050524",
"$ 	c #060526",
"% 	c #050627",
"& 	c #060527",
"* 	c #050525",
"= 	c #050520",
"- 	c #030313",
"; 	c #010109",
"> 	c #04031A",
", 	c #070732",
"' 	c #0A0A48",
") 	c #0D0C54",
"! 	c #0C0C53",
"~ 	c #0D0C53",
"{ 	c #0C0C52",
"] 	c #0C0D52",
"^ 	c #0D0C52",
"/ 	c #0D0D53",
"( 	c #09093D",
"_ 	c #050526",
": 	c #01010C",
"< 	c #030315",
"[ 	c #080837",
"} 	c #0C0D53",
"| 	c #0D0C55",
"1 	c #0D0D56",
"2 	c #0D0D57",
"3 	c #0D0C56",
"4 	c #0D0D55",
"5 	c #0C0C54",
"6 	c #0B0B49",
"7 	c #050527",
"8 	c #000002",
"9 	c #04041B",
"0 	c #0A0B47",
"a 	c #0D0D54",
"b 	c #0D0C57",
"c 	c #0E0D58",
"d 	c #0D0D59",
"e 	c #0E0E5A",
"f 	c #0D0E5B",
"g 	c #0E0D5C",
"h 	c #0D0E5C",
"i 	c #0D0D5C",
"j 	c #0E0E5B",
"k 	c #0D0E5A",
"l 	c #0E0D5A",
"m 	c #0D0E58",
"n 	c #000004",
"o 	c #02020F",
"p 	c #0A0A45",
"q 	c #0E0E59",
"r 	c #0E0E5D",
"s 	c #0E0E5E",
"t 	c #0E0F5F",
"u 	c #0E0E60",
"v 	c #0E0F60",
"w 	c #0F0F60",
"x 	c #0F0E61",
"y 	c #0D0D58",
"z 	c #0C0D56",
"A 	c #06062C",
"B 	c #0C0D57",
"C 	c #0E0E5F",
"D 	c #0E0F61",
"E 	c #0F0E62",
"F 	c #0F0F63",
"G 	c #0E0F64",
"H 	c #0F0F64",
"I 	c #0F1065",
"J 	c #0F0F66",
"K 	c #101065",
"L 	c #0F1066",
"M 	c #0F0F65",
"N 	c #0E0D5B",
"O 	c #0E0D59",
"P 	c #0B0B4C",
"Q 	c #020211",
"R 	c #0C0C51",
"S 	c #0F0F62",
"T 	c #100F65",
"U 	c #0F0F68",
"V 	c #100F69",
"W 	c #101069",
"X 	c #100F6A",
"Y 	c #10106A",
"Z 	c #10106B",
"` 	c #0F1068",
" .	c #101068",
"..	c #100F66",
"+.	c #0E0E58",
"@.	c #06062B",
"#.	c #030316",
"$.	c #0E0F5E",
"%.	c #10116C",
"&.	c #10106D",
"*.	c #11106F",
"=.	c #11116E",
"-.	c #11116F",
";.	c #111170",
">.	c #11106D",
",.	c #11106C",
"'.	c #10116B",
").	c #0F106A",
"!.	c #101066",
"~.	c #0E0E62",
"{.	c #0F0E5F",
"].	c #0C0D54",
"^.	c #09093F",
"/.	c #04041C",
"(.	c #0E0E61",
"_.	c #10116E",
":.	c #111171",
"<.	c #111272",
"[.	c #121276",
"}.	c #111275",
"|.	c #111175",
"1.	c #121274",
"2.	c #090941",
"3.	c #0F1069",
"4.	c #111172",
"5.	c #101171",
"6.	c #10106C",
"7.	c #000001",
"8.	c #10116D",
"9.	c #121173",
"0.	c #121176",
"a.	c #121278",
"b.	c #0A0B49",
"c.	c #13137D",
"d.	c #131279",
"e.	c #12137B",
"f.	c #080839",
"g.	c #121175",
"h.	c #111274",
"i.	c #111173",
"j.	c #11106E",
"k.	c #0F0F67",
"l.	c #0E0E5C",
"m.	c #0A0A47",
"n.	c #0F1067",
"o.	c #10116F",
"p.	c #121171",
"q.	c #111273",
"r.	c #12127A",
"s.	c #13137F",
"t.	c #000006",
"u.	c #13137E",
"v.	c #131482",
"w.	c #13137A",
"x.	c #121378",
"y.	c #121277",
"z.	c #0A0A43",
"A.	c #111276",
"B.	c #131278",
"C.	c #12137C",
"D.	c #14147F",
"E.	c #131380",
"F.	c #131382",
"G.	c #141383",
"H.	c #131483",
"I.	c #151588",
"J.	c #13127A",
"K.	c #111070",
"L.	c #11116D",
"M.	c #080836",
"N.	c #0A0B4A",
"O.	c #0F0F61",
"P.	c #100F68",
"Q.	c #131481",
"R.	c #141482",
"S.	c #141484",
"T.	c #141487",
"U.	c #15158B",
"V.	c #151488",
"W.	c #151589",
"X.	c #141483",
"Y.	c #141480",
"Z.	c #121174",
"`.	c #100F67",
" +	c #04041F",
".+	c #0C0C55",
"++	c #0D0E59",
"@+	c #121172",
"#+	c #12127B",
"$+	c #141381",
"%+	c #141485",
"&+	c #151487",
"*+	c #12137E",
"=+	c #16158E",
"-+	c #15158D",
";+	c #16168C",
">+	c #15158C",
",+	c #131381",
"'+	c #151586",
")+	c #141380",
"!+	c #13127D",
"~+	c #000107",
"{+	c #0F0E60",
"]+	c #141589",
"^+	c #121179",
"/+	c #161692",
"(+	c #151489",
"_+	c #12127C",
":+	c #121275",
"<+	c #101067",
"[+	c #0D0D52",
"}+	c #121279",
"|+	c #141586",
"1+	c #161693",
"2+	c #030317",
"3+	c #01020D",
"4+	c #171798",
"5+	c #171797",
"6+	c #010107",
"7+	c #15158E",
"8+	c #141585",
"9+	c #13147F",
"0+	c #13137C",
"a+	c #0D0E5E",
"b+	c #0C0D55",
"c+	c #141587",
"d+	c #131383",
"e+	c #030216",
"f+	c #171696",
"g+	c #161792",
"h+	c #141382",
"i+	c #1818A0",
"j+	c #0E0E63",
"k+	c #15158A",
"l+	c #141486",
"m+	c #131378",
"n+	c #111174",
"o+	c #141384",
"p+	c #0A0941",
"q+	c #08083A",
"r+	c #15148A",
"s+	c #14148A",
"t+	c #14137F",
"u+	c #121273",
"v+	c #101070",
"w+	c #030319",
"x+	c #13127C",
"y+	c #161691",
"z+	c #020212",
"A+	c #171899",
"B+	c #18189C",
"C+	c #0B0B51",
"D+	c #15168D",
"E+	c #151486",
"F+	c #15168E",
"G+	c #161696",
"H+	c #18179C",
"I+	c #18189F",
"J+	c #03031B",
"K+	c #1919A3",
"L+	c #18189D",
"M+	c #16158D",
"N+	c #01010A",
"O+	c #141489",
"P+	c #15168C",
"Q+	c #1818A2",
"R+	c #1919A6",
"S+	c #1919A4",
"T+	c #1818A1",
"U+	c #070730",
"V+	c #121177",
"W+	c #10106E",
"X+	c #03031A",
"Y+	c #0D0D5A",
"Z+	c #151587",
"`+	c #08083B",
" @	c #1919A7",
".@	c #171799",
"+@	c #16168F",
"@@	c #1C1DB9",
"#@	c #0F0E5E",
"$@	c #16168E",
"%@	c #070835",
"&@	c #1B1AAD",
"*@	c #1B1BB1",
"=@	c #050523",
"-@	c #1D1DBB",
";@	c #1C1CB9",
">@	c #1A1AAA",
",@	c #1A1AAD",
"'@	c #06062E",
")@	c #070733",
"!@	c #171794",
"~@	c #131484",
"{@	c #0B0B48",
"]@	c #11116B",
"^@	c #131379",
"/@	c #161690",
"(@	c #1C1CB5",
"_@	c #1B1BB0",
":@	c #1C1DBE",
"<@	c #1D1DBD",
"[@	c #1D1DBE",
"}@	c #070837",
"|@	c #1B1CB4",
"1@	c #15168F",
"2@	c #151485",
"3@	c #141481",
"4@	c #10106F",
"5@	c #11116C",
"6@	c #12137A",
"7@	c #141488",
"8@	c #000003",
"9@	c #1C1BB3",
"0@	c #1C1CB8",
"a@	c #1A1BAE",
"b@	c #1B1AAE",
"c@	c #1E1EC3",
"d@	c #1E1EC2",
"e@	c #1D1DC3",
"f@	c #1E1EC1",
"g@	c #171697",
"h@	c #1B1BB3",
"i@	c #010108",
"j@	c #151690",
"k@	c #161590",
"l@	c #16158C",
"m@	c #131480",
"n@	c #06062A",
"o@	c #1C1BB7",
"p@	c #1D1CBA",
"q@	c #1D1DBF",
"r@	c #1A1AAE",
"s@	c #1E1EC6",
"t@	c #1F1EC7",
"u@	c #1E1FC7",
"v@	c #1E1EC8",
"w@	c #1E1EC4",
"x@	c #1C1CBA",
"y@	c #1B1BB6",
"z@	c #01010D",
"A@	c #0E0F63",
"B@	c #09093C",
"C@	c #0D0D5B",
"D@	c #0F0F5F",
"E@	c #161795",
"F@	c #1C1CB6",
"G@	c #1D1DC0",
"H@	c #2020D1",
"I@	c #1F1FCC",
"J@	c #2020D0",
"K@	c #04041E",
"L@	c #1C1CBB",
"M@	c #161794",
"N@	c #16158F",
"O@	c #14158A",
"P@	c #121379",
"Q@	c #171795",
"R@	c #18189E",
"S@	c #060627",
"T@	c #1919A8",
"U@	c #1C1CB7",
"V@	c #1A1AAC",
"W@	c #01010E",
"X@	c #1F20D0",
"Y@	c #2120D5",
"Z@	c #060628",
"`@	c #161694",
" #	c #050626",
".#	c #101170",
"+#	c #171692",
"@#	c #171796",
"##	c #17179B",
"$#	c #171695",
"%#	c #060629",
"&#	c #1C1BB4",
"*#	c #17179C",
"=#	c #04041D",
"-#	c #1E1DC1",
";#	c #2020CF",
">#	c #2120D4",
",#	c #1E1EC9",
"'#	c #1B1AB2",
")#	c #07072D",
"!#	c #131485",
"~#	c #17189A",
"{#	c #18189B",
"]#	c #1A1AA9",
"^#	c #1B1BAF",
"/#	c #000007",
"(#	c #1C1DBD",
"_#	c #2121D9",
":#	c #1F1FCB",
"<#	c #1E1EC7",
"[#	c #1918A0",
"}#	c #17179A",
"|#	c #141588",
"1#	c #161797",
"2#	c #1919A5",
"3#	c #191AAA",
"4#	c #060630",
"5#	c #1E1FC8",
"6#	c #201FD1",
"7#	c #201FD0",
"8#	c #1819A3",
"9#	c #18189A",
"0#	c #161695",
"a#	c #161591",
"b#	c #060525",
"c#	c #18179B",
"d#	c #1819A0",
"e#	c #1A19A9",
"f#	c #1E1FCA",
"g#	c #1F1FD0",
"h#	c #1F20CE",
"i#	c #1F1EC9",
"j#	c #1E1FC4",
"k#	c #020210",
"l#	c #1A19A8",
"m#	c #18199F",
"n#	c #18179A",
"o#	c #151691",
"p#	c #1918A4",
"q#	c #1A1AAB",
"r#	c #0B0B4B",
"s#	c #1D1DC2",
"t#	c #1E1DC3",
"u#	c #1F1FC8",
"v#	c #1819A4",
"w#	c #1F1FCA",
"x#	c #1D1EC3",
"y#	c #1D1EC1",
"z#	c #191AA7",
"A#	c #1918A3",
"B#	c #171694",
"C#	c #0C0C4F",
"D#	c #15168B",
"E#	c #17189E",
"F#	c #1919A2",
"G#	c #1A19AA",
"H#	c #1E1EC5",
"I#	c #1F1FC6",
"J#	c #1919A1",
"K#	c #17189C",
"L#	c #171793",
"M#	c #15158F",
"N#	c #0A0A41",
"O#	c #121272",
"P#	c #171693",
"Q#	c #1918A1",
"R#	c #000108",
"S#	c #1C1DBB",
"T#	c #1D1DBC",
"U#	c #1C1DBA",
"V#	c #16168D",
"W#	c #1D1DBA",
"X#	c #1D1CBC",
"Y#	c #1C1BB6",
"Z#	c #181899",
"`#	c #0E0D5D",
" $	c #09093E",
".$	c #1818A3",
"+$	c #01010B",
"@$	c #0B0B4F",
"#$	c #1C1CB4",
"$$	c #0C0C50",
"%$	c #1B1BB5",
"&$	c #17189B",
"*$	c #151585",
"=$	c #04051F",
"-$	c #1B1BB2",
";$	c #0B0B4E",
">$	c #181799",
",$	c #0F0E63",
"'$	c #1B1BAD",
")$	c #1B1AB0",
"!$	c #1A1AAF",
"~$	c #0E0F62",
"{$	c #111277",
"]$	c #191AAB",
"^$	c #1B1AAF",
"/$	c #0B0B4A",
"($	c #161796",
"_$	c #0F1064",
":$	c #080838",
"<$	c #1A1AA7",
"[$	c #1A19A6",
"}$	c #14158C",
"|$	c #13127B",
"1$	c #13147E",
"2$	c #020214",
"3$	c #090A43",
"4$	c #02020C",
"5$	c #171792",
"6$	c #07072F",
"7$	c #080732",
"8$	c #08093D",
"9$	c #11106B",
"0$	c #010105",
"a$	c #020213",
"b$	c #06062F",
"c$	c #13137B",
"d$	c #040423",
"e$	c #0B0B4D",
"f$	c #050522",
"g$	c #12127D",
"h$	c #07062B",
"i$	c #080835",
"j$	c #0F0F69",
"k$	c #070731",
"l$	c #0B0A47",
"m$	c #06062D",
"n$	c #0A0A46",
"o$	c #050521",
"p$	c #0A0942",
"q$	c #0C0C56",
"r$	c #07072E",
"s$	c #09093A",
"t$	c #000005",
"u$	c #07072C",
"                                                  . . . . . . . . . . . . .                                                     ",
"                                            . . . . . . . . . . . . . . . . . . . .                                             ",
"                                      . . . . . . . . + @ # $ % & * = - ; . . . . . . .                                         ",
"                                  . . . . . . > , ' ) ! ~ { ] { ] ^ ^ / ! { ( _ : . . . . . .                                   ",
"                              . . . . . < [ ! { ^ } | 1 1 2 1 2 2 2 1 3 4 5 ~ { / 6 7 8 . . . . .                               ",
"                            . . . . 9 0 / { a 4 b c d e f g g h i g j k l d m b 4 / ^ a , n . . . .                             ",
"                        . . . . o p { / 4 2 q k g r s t u v w x w w u u t s r j l y z 5 ] a A . . . .                           ",
"                      . . . . , / ! 4 B q f r C D E F G H I J K J L M M F F D v s r N O 2 a { P Q . . . .                       ",
"                    . . . ; 6 R 5 2 O j s w S H T L U V W X Y Z Y Z Y W `  ...H F x t r f +.1 ! ) @.. . . .                     ",
"                  . . . #.{ ^ | +.f $.w E H J ` Y Z %.&.*.=.-.-.;.*.-.=.>.,.'.). .!.H ~.{.r l 2 ].{ ^.. . . .                   ",
"                . . . /.} ~ 1 O h C (.H !.V Z >._.;.:.<.;.@.[.}.|.1.2.3.4.5.*._.6.Y U !.F x C f O 4 { p 7.. . .                 ",
"              . . . /./ a z e r w F ..U Z 8.-.:.9.1.0.a.b.+ c.d.d.e.@.f.a.g.h.i.:.j.,.Y k.M ~.v l.O 1 ^ m.. . . .               ",
"            . . . #./ } 2 e s u H n.W 8.o.p.q.}.a.d.r.s./.t.u.u.u.v.< : s.w.x.y.}.i.:.=.%.V L F w l.e 1 ] z.. . .               ",
"            . . ; R ! 1 k r (.H k.Z _.:.i.A.B.w.C.c.D.E.n n F.G.H.I.Q . :.s.c.e.J.y.|.<.K.L.Y k.F w h q 1 ^ M.. . .             ",
"          . . . N.] 1 k r O.H P.Z o.:.h.y.J.C.u.Q.R.S.T.* @.U.I.V.W.f.t.s.X.F.Y.u.C.d.[.Z.:._.Z `.H w r q 4 /  +. . .           ",
"        . . . , R .+++r v M P.6.-.@+}.a.#+u.$+X.%+&+W.u.2 *+=+-+;+>+=+h.,+W.'+S.F.)+!+e.a.}.:.j.'.`.H w h m a ^ ~+. .           ",
"        . . o ~ a y l.{+H n.Z *.9.[.d.C.s.F.%+&+]+U.^+. . . i./+/+/+A . . W U.(+&+S.,+s._+a.:+4.j.Z <+F C N 2 ~ ^.. . .         ",
"      . . . p [+2 k C F n.Y -.<.[.}+c.E.X.|+W.U.=+1+2+. . . 3+4+5+u . . . 6+7+7+>+W.8+R.9+0+}+}.4.L.W ..S a+l 1 a 2+. . .       ",
"      . . 9 { b+++r S J Y =.4.g.}+c.)+X.c+d+e+f+g+h+. . . . . }+i+2+. . . . E g+K.j+k+l+v.s._+m+n+:.L.W T w l.y 5 6 . . .       ",
"    . . . ' ! 2 g w H  .%.:.Z.}+0+)+o+c+>+p+ +4+f+r . . . . . y 4+. . . . . q+4+c.. r+s+T.R.t+#+a.u+v+'.`.F s k 1 ].w+. .       ",
"    . . < { 4 ++s S `.Y *.9.y.x+9+X.T.U.y+z+q+A+B+C+. . . . . p /+. . . . . @ i+k+. k.D+(+|+h+u.J.[.4.=.Y T D r y ].z.. . .     ",
"    . . [ ^ 2 f w H ` &.:.A.w.u.R.E+k+F+G+i.>+H+I+].. . . . . m.f+. . . . . J+K+L+, &+y+M+W.%+$+c.}+}.;.%.` F s k | 4 N+. .     ",
"  . . . ! ].O r E !.Z -.h.a.C.Y.%+O+P+=+# 8 [ Q+K+k.. . . . . F R+. . . . . ^.S+T+Y U+4.y+>+V.S.t+e.V+4.W+W M v l.2 ~ @.. .     ",
"  . . X+[+4 Y+{.F ` &.:.[.J.u.H.Z+U./+`+. . . Y  @.@. . . . . +@@@X+. . . . ;.R+_+. . . s.7+U.l+R.c.}+:+;.6.<+E #@++a ' . . .   ",
"  . . , { 2 f w M W j.u+a.C.)+%+]+$@1+. . . . %@&@*@=@. . . #.-@;@[.. . . ; >@,@'@. . . )@!@>+I.~@s.e.0.4.8. .H t l z | t.. .   ",
". . . {@! c r E J ]@;.:+^@u.F.Z+U./@r.. . . . 6+(@_@T+6+. 7.i+:@<@[@}@. . %+_@|@o . . . o f+1@k+2@3@!+a.9.4@Y M {+h 2 ].9 . .   ",
". . . ]..+O s F k.5@:.[.6@t+S.7@M+/+H . . . . 8@;@9@0@a@l+b@c@d@e@f@f@g@>@0@h@_@i@. . . . j@k@l@7@H.u.d.}.K.Z <+D r m ! A . .   ",
". . + ! | k {.H  .8.@+y.0+m@%+k+1@1+W+. . . . n@0@o@p@q@[@r@s@t@u@s@v@w@d@x@y@0@z@. . . . +@/+F+]+S.s.w.A.:.,.`.A@#@d ].B@. .   ",
". . @ ! 1 C@D@M W W+u+a.0+3@l+U./@E@1+. . . . Y+F@@@G@0.: # H@I@J@/@, K@, s.L@x@* . . . N+.@M@N@O@2@)+C.[.<.&. .F C d | b.. . . ",
". . # ^ 2 h {+M Y o.Z.P@u.h+c+l@/@Q@R@S@. . . T@U@V@# . W@H+X@Y@{ . . . . . Z@h@H . . . A L+`@N@U.'+Q.x+a.@+L.3.G C l b+{ . . . ",
". .  #^ 2 g u I Z .#h.}+u.R.V.-++#@###$#%# +O+&#*#6+. =#-#;#>#d+. @.,#'#)#. . S@h@9 . . !#~#Q@k@>+E+Q.c.a.<._.W H D@C@3 | . . . ",
". . 7 ] 2 g v J Z -.Z.^@u.X.7@l@/+@#{#i+]#,@^# @/#. N+(#I@H@_#2+. *+J@:#<#w+. . U >@J >+[#}#$#/@>+Z+,+c.a.u+W+W H v j | 1 . . . ",
". . % ^ 2 l.u !.'.-.:+^@u.G.|#l@y+1#{#i+2#3#h@4#. . s+5#I@6#V@. . !@7#:#s@y+. . o _@]#8#I+9#0#a#U.&+Q.c.a.u+j.V M D@f 1 4 . . . ",
". . b#] 2 l.D J Y *.h.m+u.F.I.>+y+G+c#d#S+e#1@. . Q s@s@f#g#Y . . T+h#i#j#c@k#. . (+l#8#m#n#E@/@U.l+$+_+a.q._.W H {+C@4 ].. . . ",
". . = ] 1 f x I Y o.h.}+c.v.Z+>+o#0#9#I+p#q#B@. . r#s#t#u#h#2 . . v#w#<#x#y#z.. . C z#A#R@A+B#+@U.2@,+_+y.4._.W F C l 4 C#. . . ",
". . - a | C@D@M W W+9.a.c.,+l+D#+@B#A+E#F#G#z+. . F [@f@H#w#4 . . Q+I#w@G@<@l.. . 2  @J#K#4+L#M#W.%+m@x+A.4.>.` F #@e 5 N#. . . ",
". . ; ~ | k {.F ` L.O#y.#+m@2@(+$@P#4+B+Q# @R#. . V S#[@G@H#5 . . R@t#G@T#U#`.. . { 2#I+{#@#/+V#|#S.t+r.|.;.5@`.S s m ) [ . .   ",
". . . { 5 q s F <+6.:.g.6@s.X.|#M+y+@#n#I+2#6+. . j+0@W#(#f@{ . . B+[@X#@@Y#M . . 2 K+R@Z#`@/@U.T.R.u.d.h.o.Z J O.`#y / # . .   ",
"  . .  $~ y l.S L Z ;.h.d.c.v.|+U.N@!@4+H+.$+$. . @$#$Y#0@(#$$. . 4+x@0@%$h@1 . . s i+&$5+L#F+k+*$,+0+a.u+W+X M u j 2 ].Q . .   ",
"  . . _ ^ 2 N v H W W+<.y.x+m@S.W.V#o#f+.@T+w+. . =$%$-$#$U@;$. . B#%$9@*@-$`+. . /@L+>$E@/@P+V.o+9+r.0.:.>.` H {.l | a . . .   ",
"  . . : ].4 e s ,$k.%.:.}.}+u.h+|+U.1@P#5+L+ $. . . 5+'$)$h@P . . y+_@!$'$G#N+. K@Q+n#G+/+$@r+*$Q.0+x.h.K.'...~$s d a q+. . .   ",
"  . . . 6 a c g D ..Y o.q.{$0+)+S.|#>+/@M@5+&+. . . n@r@]$^$/$. . -+V@q#]#Z . . *.n#($L#N@U.c+G.s.e.[.@+>.W H {+N 2 / 9 . .     ",
"    . . 7 { 1 C@{+_$` &.;.:+P@u.F.%+W.V#/@M@n#:$. . . d q#]#{@. . 7@<$[$$#n . U+L+5+P#j@}$V.%+m@0+x.n+-.6.<+A@C l | [+. . .     ",
"    . . 8 a a q r D J Y =.q.y.|$1$v.l+(+=+/@B#`@2$. . . 3$L+/$. . %+T@s.4$. K@g@@#5$k@>+W.%+$+c.w.g.:.8.W M O.l.y } 6$. . .     ",
"      . . 7$] 2 j D@H ` 6.;.Z.y.0+s.X.Z+W.-+j@1++@=#. . . n Q . . 8$ +. . [ 4+E@/+M#>+V.l+F.u.r.y.4.4@9$<+~$s e 4 4 0$. .       ",
"      . . n } 4 c r x M W >.:.:+P@0+Y.v.|+W.l@=+y+f+s a$. . . . . . 7.b$_+4+L#k@$@U.7@%+v.s.c$y.u+;.6.` H u l.y } , . . .       ",
"      . . . A { 1 l s E J Y >.:.|.x.|$t+v.%+7@k+-+M#/@M@m@6.d$. . C -+5+/+/@F+>+O@c+S.R.u.e.a.n+:.8.V M D r O 4 ! 8 . .         ",
"        . . . e$~ 2 f w F <+Z =.4.|.a.#+u.3@S.|+|#k+>+M+1@y+3$. . 3.k@+@M+>+W.|#%+X.Y.c.|$y.1.:.>.).!.S s j 1 ~ f$. . .         ",
"        . . . Q a 5 ++l.v F `.Y W+:.:+y.r.g$s.h+S.|+Z+]+k+l@^.. . ~.U.W.|#T.l+X.3@s.C.6@A.h.:.L.W k.S t N c } p+. . .           ",
"          . . . h$/ 4 d r O.H `.Y =.;.Z.[.d.#+c.s.3@G.S.%+c+q+. . Y+|+8+S.h+Q.t+g$w.a.}.u+K.8.W `.F {+l.y ) $$n . . .           ",
"            . . . ^.[+1 e r u H <+).L.4@@+h.y.d.c$!+u.t+3@X.i$. . ! $+)+9+u.x+J.}+[.h.4.4@6.W J ~$u l.y b+b+Q . . .             ",
"              . . . p ] 1 k l.v F ..j$]@W+;.4.1.[.a.}+c$C.u.k$. . P C.e.r.}+a.[.n+4.-.>.Z P.I S C l.++| 4 @ . . .               ",
"              . . . 7.l${ 3 q h t S H k.Y 5@j.;.4.9.}.A.A.}+m$. . n$a.[.:+h.u+:.-.j.Z 3...H (.s l.+.) 4  +. . .                 ",
"                . . . . z.} | m j s x F ..k.W 9$8._.;.:.4.1.Z@. . ^.9.4.:.-.j.5@Z W <+I ~.{+r Y+2 a a @ . . .                   ",
"                  . . . . M.a ].2 Y+l.{.(.F M n.` Y Z 6.8.;.# . . 6 =.L.%.Z W ` !.M S w s i O 2 ! $$Q . . . .                   ",
"                    . . . .  +! / z c j r C O.E H M ..P.` Y o$o n$9$` P.k.!.M F ~$v C g l y 4 ! p$n . . .                       ",
"                      . . . . 6+^.a ! q$m e h s t O.~.F F H ,$k.H H H F S x w #@r f l m 4 ! } f$. . . .                         ",
"                          . . . . 2+/$} a 1 y O N i l.s C D@C {.v {.{.s s h j l d 2 b+! b+, 8 . . . .                           ",
"                            . . . . . X+z.4 ~ ].z 2 +.++k l j j l C@k e d 2 2 4 ].) ] r$0$. . . . .                             ",
"                                . . . . . N+@.{@4 ].! 5 4 z 1 z 1 4 | 4 a / a a s$9 . . . . . .                                 ",
"                                  . . . . . . . t$9 u$B@6 { b+1 1 5 C#p+[ # Q . . . . . . .                                     ",
"                                        . . . . . . . . . . . . . . . . . . . . . . . .                                         ",
"                                              . . . . . . . . . . . . . . . . . .                                               ",
"                                                        . . . . . . . .                                                         "};
