<?xml version="1.0" standalone="yes"?>
<svg width="256" height="256">
<path style="fill:#ffffff; stroke:none;" d="M0 0L0 112L12.8086 71C30.5316 35.5541 70.588 1.85474 112 1C102.926 -2.80756 87.8472 0 78 0L0 0z"/>
<path style="fill:#010101; stroke:none;" d="M112 0.425156C92.7964 3.0392 74.3588 9.1606 58 19.6983C-16.591 67.7469 -18.9851 178.858 52 231.116C64.577 240.375 78.9002 247.132 94 251.116C109.235 255.135 126.295 256.593 142 254.715C160.823 252.463 178.777 246.357 195 236.55C208.718 228.258 220.823 216.83 230.37 204C284.643 131.067 244.57 22.9485 156 2.65123C142.135 -0.526184 126.138 -1.4993 112 0.425156z"/>
<path style="fill:#ffffff; stroke:none;" d="M143 0L172 7.69522C191.811 14.8925 208.856 27.5472 223 43.0008C237.181 58.4948 246.903 77.6492 251.87 98C268.999 168.177 220.256 241.588 149 253.565C83.1339 264.636 2.487 215.044 1 143C-2.80756 152.074 0 167.153 0 177L0 256L256 256L256 0L143 0z"/>
<path style="fill:#0d0d4f; stroke:none;" d="M195 223L190 222C190 226.276 179.603 228.17 176 229.667C163.436 234.886 146.736 243.035 133 241C128.25 244.599 123.291 241.94 118 241.05C106.39 239.098 87.2425 238.342 79 229C65.6045 228.854 38.195 207.198 35 194C28.6848 188.2 20.8079 173.612 21 165C14.5836 158.128 13.2341 146.036 12.7083 137C12.3874 131.485 14.3312 127.857 11 123L14 122L15 101C18.7127 99.9565 21.5018 86.9347 21 83C27.2614 79.3053 28.3038 71.9008 32.1289 66.2593C38.7764 56.4549 45.6813 47.0468 55.831 40.9923C60.2859 38.3348 67.2072 33.4419 67 28L72 28C72 23.3325 87.093 20.9371 91 18.8333C104.301 11.6713 122.099 14.0472 136 13.8333C143.96 13.7109 156.569 13.594 162 21C180.812 15.491 198.266 41.9278 213 49C213.541 51.6983 214.383 52.0472 217 53C211.865 41.989 198.216 32.6939 188 26.6042C154.926 6.88773 113.069 4.25116 78 20.3086C-3.35329 57.5591 -12.4976 170.938 59 222.842C77.183 236.042 100.534 243.999 123 244C149.924 244.002 172.021 236.884 195 223z"/>
<path style="fill:#0e0e58; stroke:none;" d="M72 28L67 28C66.8475 36.0663 54.7113 39.2559 49.5285 43.5988C36.7451 54.3106 33.0361 72.2734 21 83C20.4513 87.6638 18.843 98.6035 15 101C15.6149 105.765 17.1783 122.203 11 123C16.6348 134.663 8.27191 156.041 21 165C20.2743 173.12 28.1174 189.621 35 194C36.5429 206.094 55.3652 217.519 64.7145 223.495C69.0974 226.297 73.6531 229.818 79 229C84.8831 239.072 107.651 239.23 118.039 241.235C122.633 242.121 129.371 245.153 133 241C147.149 242.949 164.232 235.182 177.06 229.718C181.034 228.025 189.331 226.78 190 222C203.279 221.829 214.854 205.936 221.995 196C244.76 164.327 250.362 122.571 236.958 86C233.49 76.5361 228.849 67.1321 222.856 59L213 49C200.901 40.3311 191.144 29.4148 177 23.8164C171.116 21.4874 168.391 18.3501 162 21C159.085 15.9669 147.63 12.9698 142 13.0046C125.564 13.1062 105.258 11.2228 89.9398 18.6574C85.5566 20.7848 72.7661 22.767 72 28z"/>
<path style="fill:#101066; stroke:none;" d="M66 46L61 46L42.1883 67.5903L33 84C33.0252 87.3193 32.1977 89.5257 30 92C29.5785 99.7357 27.6782 115.166 21 120L23 126L21 126C22.5915 134.567 21.737 155.472 29 161C27.8593 170.941 38.246 174.942 38 184C43.4432 188.495 56.0158 200.547 58 207C64.1882 208.031 63.6855 213.343 69 216L86 222C89.1053 223.035 90.4315 224.274 90 226C106.862 229.142 122.923 232.117 140 232C140.716 226.491 158.048 224.438 163 223.028C177.228 218.977 193.243 209.283 203.139 198.389C208.989 191.949 214.783 180.194 222 176C221.946 167.053 230.538 159.921 228 151L231 150C229.921 133.024 232.751 115.813 228.789 99C226.608 89.7397 217.986 84.1195 217 74C212.379 66.8992 211.64 60.4898 203 57C201.538 47.253 185.633 42.0995 178.289 37.6867C149.915 20.6375 117.732 17.4741 88 32.7685C81.1137 36.3109 68.6408 37.7441 66 46z"/>
<path style="fill:#121272; stroke:none;" d="M112 38C104.447 36.0968 96.4446 40.1789 89.7145 43.1767C76.5217 49.0532 60.5614 58.3979 52.4637 71.0941C47.9296 78.2032 45.3743 91.0176 39 96L37 110C32.9094 113.115 34.2385 119.399 34.1682 124.093L39 160C41.7984 162.869 44.1036 168.083 45 172C58.5451 181.821 63.6113 204.377 83 207C85.2063 217.629 111.489 218.397 120 220L121 199L120 209C111.275 208.109 100.931 207.509 93.0154 203.137L66 184C64.8546 175.038 54.4874 169.42 53 160C49.9474 156.841 48.9924 152.327 49 148C41.9904 139.334 47.0217 118.119 48.6944 108.17C49.546 103.105 53.1291 98.8594 50 94C54.5893 89.8661 65.3471 77.7976 66 72C72.1574 70.9979 76.3358 63.526 81.2091 59.7346C89.5698 53.2298 101.298 47.0957 112 47L112 52L118 40L120 56C124.009 49.1771 135.198 46.4861 136 57L138 41L141 41L143 50L144 47L161.999 52.1088L174 58C176.488 62.9708 181.499 66.3866 187 67L186 70C190.354 71.983 194.507 77.1431 195 82L199.549 91.5718C212.828 114.792 211.006 135.66 205 161L203 160L194 180C190.714 180.666 188.423 181.497 188 185L183 185L180 188L170 200L135 210L135 205L135 219C140.746 219 155.141 218.355 157 212C175.408 211.937 186.946 200.256 197.496 186.755C201.673 181.409 207.161 177.314 207 170C214.177 167.919 219.764 153.796 217 147L219 147C216.453 141.905 224.641 127.328 218 126C219.274 121.622 219.708 116.235 218 112C219.988 109.658 217.391 105.853 216.753 102.985C215.002 95.1193 213.505 82.9799 205 80C204.205 72.58 196.791 68.9368 195 62C191.645 60.3713 189.632 58.3556 188 55L152 37.8611L131 34C125.054 35.7681 115.203 31.9142 112 38z"/>
<path style="fill:#010101; stroke:none;" d="M117 40C112.867 46.0715 113 51.8976 113 59C121.448 58.3418 120.448 45.7566 117 40M138 41L138 60L144 59L141 41L138 41z"/>
<path style="fill:#14147f; stroke:none;" d="M66 72C64.6915 78.413 54.3916 88.3848 50 94C53.5352 101.827 46.3316 112.675 45.4028 120.715L46.7909 132C46.5849 136.92 44.6234 144.623 49 148C48.2407 151.913 49.3302 157.886 53 160C53.6174 169.83 63.8299 175.078 66 184C84.2194 196.428 97.1558 207.895 120 209L120 199C111.754 197.957 101.356 197.009 94 192.857L72 177C72.3382 175.328 72.5372 175.69 71 175C70.4636 171.377 68.4613 169.981 65 169C67.0499 161.847 61.8348 159.391 60.3287 152.996L55.7955 131.576L56 109C59.8834 106.057 62.1723 97.6745 61 93C64.0901 92.3412 71.3967 82.1889 72 79C76.8263 78.297 78.8998 74.7195 82.7539 72.0972C91.3999 66.2146 102.026 58.7144 113 59L112 47C101.022 47.0315 88.8393 52.7643 80.375 59.7346C75.7562 63.5381 71.7087 70.3106 66 72z"/>
<path style="fill:#060626; stroke:none;" d="M119 47L119 56C120.256 53.0059 120.256 49.9941 119 47z"/>
<path style="fill:#14147f; stroke:none;" d="M144 47C144.384 51.8707 144.949 55.3704 143 60C152.175 60.2714 162.249 65.1526 171 68L170 70L193 95C191.894 100.176 192.339 106.254 198 108L196 111C208.136 124.969 194.006 142.524 195 158C192.128 159.809 191.447 161.67 191 165C182.608 167.483 176.157 180.853 169.112 186.572C159.076 194.718 146.328 196.34 134 198L135 210L170 200C173.211 195.803 179.079 193.361 180 188C182.364 187.518 182.518 187.364 183 185L188 185C187.882 181.703 191.08 180.615 194 180L203 160L205 161C212.273 139.503 214.123 113.84 201.614 94.0802L195 82C194.917 77.0142 190.862 71.3649 186 70L187 67C181.616 65.9231 177.222 62.3698 174 58L163.985 52.5177L144 47z"/>
<path style="fill:#16168c; stroke:none;" d="M72 79C69.8971 82.9892 64.7358 90.672 61 93C61.3711 98.2931 59.4949 104.999 56 109L57.973 144.09C59.9015 151.667 66.5597 161.71 65 169C67.9438 170.353 70.1257 171.791 71 175L73 175L72 177L93.2855 192.921C100.889 197.25 112.369 198.629 121 199L121 186L109 183C96.0641 187.271 79.495 166.396 76 156C72.3028 154.883 70.6294 152.936 71 149C63.9136 140.384 64.984 113.724 72 105C74.1669 96.4681 80.4464 87.3392 90 89C85.692 82.3468 82.4184 76.6049 92 72L92 77C95.724 74.7121 99.6378 73.7818 104 74C105.643 65.8294 112.883 58.8866 120 66L120 63C134.3 61.9109 155.118 62.8086 162 78L163 74C168.67 76.9056 171.763 83.5579 165 87L175.891 93.5185C183.082 102.108 184.909 122.422 182 133L184 140L178.918 150.83C175.711 157.286 171.528 163.818 166.495 168.985C163.825 171.725 159.91 175.997 156 174C143.835 179.539 134 184.395 134 198C149.197 196.759 162.829 193.259 174.37 182.711C180.171 177.409 183.95 168.465 191 165L195 158C194.888 144.464 209.176 121.849 196 111L198 108C192.957 105.419 192.501 100.271 193 95C184.357 87.0571 181.087 75.7137 170 70L171 68L140.264 59.7261C132.715 56.6025 136.67 48.134 125.109 50.1481L116.62 58.8279L107.424 59.1512L92.0147 65.3233L72 79z"/>
<path style="fill:#070731; stroke:none;" d="M143 50L144 58C145.275 54.9305 144.993 52.6308 143 50z"/>
<path style="fill:#060626; stroke:none;" d="M112 52L112 57L112 52z"/>
<path style="fill:#09093c; stroke:none;" d="M114 59L118 60L114 59M139 60L143 60L139 60z"/>
<path style="fill:#010101; stroke:none;" d="M111.156 62.7608C97.5295 68.1356 99.8467 110.498 117.956 103.397C127.631 99.6024 127.934 77.6921 123.836 70.0046C121.759 66.109 115.985 60.8558 111.156 62.7608z"/>
<path style="fill:#171999; stroke:none;" d="M120 63L127 79C132.585 77.2608 136.432 68.3386 138 63L120 63z"/>
<path style="fill:#070731; stroke:none;" d="M116 63L119 64L116 63M138 64L145 64L138 64z"/>
<path style="fill:#010101; stroke:none;" d="M140.104 64.7431C130.048 68.9225 130.478 87.6791 133.664 96C135.745 101.437 140.888 105.816 146.896 103.142C156.556 98.8426 156.429 79.9639 152.685 72.0008C150.309 66.947 146.325 62.1576 140.104 64.7431z"/>
<path style="fill:#09093c; stroke:none;" d="M136 66L134 71C135.693 69.2182 136.375 68.419 136 66M151 69L153 72L151 69z"/>
<path style="fill:#1a1aa4; stroke:none;" d="M153 70C154.206 79.2692 155.232 84.6849 154 94L155 91C157.366 93.9866 159.396 96.1783 160 100L167 89C162.07 81.7262 163.044 72.2004 153 70z"/>
<path style="fill:#070731; stroke:none;" d="M89 72L91 78L92 72L89 72z"/>
<path style="fill:#010101; stroke:none;" d="M88 73L85 85C90.9442 84.0081 90.7785 78.1582 91 73L88 73z"/>
<path style="fill:#171999; stroke:none;" d="M101 73C91.7792 76.5273 85.9669 83.555 93 93C95.307 90.1783 96.991 86.6315 101 88C102.74 83.8523 102.74 77.1477 101 73z"/>
<path style="fill:#09093c; stroke:none;" d="M87 74L86 77L87 74z"/>
<path style="fill:#070731; stroke:none;" d="M102 74L103 93L104 74L102 74z"/>
<path style="fill:#010101; stroke:none;" d="M163 74L165 87C171.958 84.6907 168.746 75.7736 163 74z"/>
<path style="fill:#0e0e58; stroke:none;" d="M131 75L132 93L133 75L131 75z"/>
<path style="fill:#14147f; stroke:none;" d="M126 77L126 89C127.512 85.3957 127.512 80.6043 126 77z"/>
<path style="fill:#0d0d4f; stroke:none;" d="M90 78L90 84C90.9511 81.7147 90.9511 80.2853 90 78z"/>
<path style="fill:#1f1fc4; stroke:none;" d="M130 78L127 79C126.994 88.2937 125.98 97.6765 117.96 103.693L108.093 106.523L100 115L100 119C106.615 117.45 115.256 107.759 120 116C108.211 121.203 104.977 140.09 119 145C122.31 133.832 125.232 110.993 142 112.231L160 120C158.653 114.318 155.876 107.407 149.83 105.172C144.399 103.164 141.144 105.996 136.499 100.571C130.47 93.5284 133.153 85.5149 130 78z"/>
<path style="fill:#121272; stroke:none;" d="M155 78L154 90C157.045 87.3394 156.478 81.5215 155 78z"/>
<path style="fill:#0e0e58; stroke:none;" d="M163 79L163 85C163.951 82.7147 163.951 81.2853 163 79z"/>
<path style="fill:#0d0d4f; stroke:none;" d="M84 81L84 84L84 81M169 81L169 85L169 81M86 85L89 86L86 85z"/>
<path style="fill:#1a1aa4; stroke:none;" d="M96 108C99.63 104.867 101.86 101.264 107 102L101 86C90.7548 89.1361 95.9774 99.8106 96 108z"/>
<path style="fill:#060626; stroke:none;" d="M81 89L88 89L81 89z"/>
<path style="fill:#010101; stroke:none;" d="M83.054 89.5733C70.521 93.3693 73.0692 127.421 86.9846 122.392C98.1881 118.343 98.9871 84.7475 83.054 89.5733z"/>
<path style="fill:#121272; stroke:none;" d="M125 89L125 94L125 89z"/>
<path style="fill:#09093c; stroke:none;" d="M166 89L172 90L166 89z"/>
<path style="fill:#010101; stroke:none;" d="M166.059 91.0285C156.203 96.3692 160.285 131.427 173.895 123.971C184.61 118.101 180.865 83.0049 166.059 91.0285z"/>
<path style="fill:#1c1cb4; stroke:none;" d="M155 91L146 105C154.004 105.708 157.689 113.171 160 120L157 119C160.819 125.341 164.882 130.436 166 138L168 138L170 134C169.486 126.011 163.991 122.303 161.524 115C158.584 106.298 162.406 97.7161 155 91z"/>
<path style="fill:#09093c; stroke:none;" d="M78 92L77 95L78 92z"/>
<path style="fill:#121272; stroke:none;" d="M93 93L94 99C94.9942 96.425 94.654 95.1767 93 93z"/>
<path style="fill:#0d0d4f; stroke:none;" d="M124 93L123 99C124.495 96.8149 124.889 95.508 124 93z"/>
<path style="fill:#101066; stroke:none;" d="M153.333 93.6667L153.667 94.3333L153.333 93.6667M76 95L75 101L76 95z"/>
<path style="fill:#09093c; stroke:none;" d="M104 95L104 98L104 95z"/>
<path style="fill:#101066; stroke:none;" d="M161.333 95.6667L161.667 96.3333L161.333 95.6667z"/>
<path style="fill:#09093c; stroke:none;" d="M161 97L161 100L161 97z"/>
<path style="fill:#070731; stroke:none;" d="M95 99L94 113C96.3959 109 96.8062 103.304 95 99z"/>
<path style="fill:#121272; stroke:none;" d="M135.333 99.6667L135.667 100.333L135.333 99.6667z"/>
<path style="fill:#1c1cb4; stroke:none;" d="M88 127L91 127L90 132C94.7723 129.321 98.8548 123.469 102 119L100 115L110 105C99.5992 92.6321 90.9176 119.336 88 127z"/>
<path style="fill:#09093c; stroke:none;" d="M160 100L160 112C161.512 108.396 161.512 103.604 160 100z"/>
<path style="fill:#171999; stroke:none;" d="M73 101L72 105C68.7276 107.716 69.0164 112.031 68.429 116C67.096 125.006 62.601 142.24 71 149C70.1764 153.235 71.7816 155.295 76 156C79.1003 170.464 94.4869 181.303 108 185L94.7994 171.004C84.9237 157.133 88.4036 142.496 91 127L88 127L92 119C76.2309 129.232 77.1996 111.008 73 101z"/>
<path style="fill:#0e0e58; stroke:none;" d="M74 101L75 115C76.4979 111.162 75.5876 104.775 74 101M179 101L179 116C181.815 111.879 182.038 105.009 179 101z"/>
<path style="fill:#030319; stroke:none;" d="M110 104L118 105L110 104z"/>
<path style="fill:#070731; stroke:none;" d="M140 104L146 105L140 104z"/>
<path style="fill:#121272; stroke:none;" d="M111 105L117 106L111 105z"/>
<path style="fill:#16168c; stroke:none;" d="M141 105L145 106L141 105z"/>
<path style="fill:#09093c; stroke:none;" d="M115 111L118 112L115 111z"/>
<path style="fill:#010101; stroke:none;" d="M122 224C140.058 220.434 133 198.122 133 184C162.622 183.369 176.878 139.36 156.79 119.129C145.123 107.379 126.63 114.994 123.515 130.001L123 147L123 177C92.7582 173.882 97.4441 128.182 119 117C116.801 106.92 103.08 117.889 99.054 122.019C89.2257 132.1 88.5166 143.674 89.0185 156.985C89.462 168.747 99.0878 178.83 109.424 183.161L120.397 186.434C122.735 189.125 122 193.713 122 197L122 224z"/>
<path style="fill:#0d0d4f; stroke:none;" d="M118.333 112.667L118.667 113.333L118.333 112.667z"/>
<path style="fill:#121272; stroke:none;" d="M137 112L145 113L137 112z"/>
<path style="fill:#09093c; stroke:none;" d="M93 113L93 116L93 113M111.667 113.333L112.333 113.667L111.667 113.333z"/>
<path style="fill:#060626; stroke:none;" d="M135 113L148 114L135 113z"/>
<path style="fill:#09093c; stroke:none;" d="M161 113L161 116L161 113z"/>
<path style="fill:#1a1aa4; stroke:none;" d="M181 113C177.794 118.487 175.564 124.152 169 126L170 134C163.572 138.797 167.03 148.195 165.471 155L156 176C167.485 173.18 175.162 159.936 179.82 149.91L184 140L182 133C184.249 126.831 184.464 118.774 181 113z"/>
<path style="fill:#101066; stroke:none;" d="M119.333 114.667L119.667 115.333L119.333 114.667z"/>
<path style="fill:#121272; stroke:none;" d="M133.667 114.333L134.333 114.667L133.667 114.333z"/>
<path style="fill:#070731; stroke:none;" d="M106 117L109 115L106 117z"/>
<path style="fill:#14147f; stroke:none;" d="M151.667 115.333L152.333 115.667L151.667 115.333z"/>
<path style="fill:#060626; stroke:none;" d="M136 119L142 120L136 119z"/>
<path style="fill:#070731; stroke:none;" d="M127 120L126 123L127 120z"/>
<path style="fill:#171999; stroke:none;" d="M134 124L142 121C138.32 119.516 135.869 120.61 134 124z"/>
<path style="fill:#0d0d4f; stroke:none;" d="M142 120L145 122L142 120z"/>
<path style="fill:#1f1fc4; stroke:none;" d="M134 156C149.314 154.663 158.767 139.33 148.501 126.044C145.501 122.161 138.376 118.497 135.028 124.148C132.641 128.178 134 135.478 134 140L134 156z"/>
<path style="fill:#1c1cb4; stroke:none;" d="M111 122C99.733 136.123 97.6236 160.982 121 161L121 135L119 145C108.113 139.183 112.064 131.135 111 122z"/>
<path style="fill:#101066; stroke:none;" d="M82 123L86 124L82 123z"/>
<path style="fill:#09093c; stroke:none;" d="M160.333 123.667L160.667 124.333L160.333 123.667z"/>
<path style="fill:#16168c; stroke:none;" d="M124 124L124 127L124 124z"/>
<path style="fill:#0d0d4f; stroke:none;" d="M167 125L173 126L167 125z"/>
<path style="fill:#14147f; stroke:none;" d="M107 126L106 129L107 126z"/>
<path style="fill:#060626; stroke:none;" d="M132 126L132 178L133 164C133 153.104 136.208 136.027 132 126z"/>
<path style="fill:#14147f; stroke:none;" d="M133 126L133 131L133 126z"/>
<path style="fill:#070731; stroke:none;" d="M94.3333 127.667L94.6667 128.333L94.3333 127.667z"/>
<path style="fill:#121272; stroke:none;" d="M123 127L123 130L123 127M150.333 128.667L150.667 129.333L150.333 128.667M163 128L163 131L163 128z"/>
<path style="fill:#070731; stroke:none;" d="M151 129L151 132L151 129z"/>
<path style="fill:#101066; stroke:none;" d="M122.333 130.667L122.667 131.333L122.333 130.667z"/>
<path style="fill:#16168c; stroke:none;" d="M104.333 131.667L104.667 132.333L104.333 131.667z"/>
<path style="fill:#1c1cb4; stroke:none;" d="M133 131L134 168C153.138 167.432 154 152.949 154 138C149.596 147.692 145.456 154.307 134 156C134 148.503 135.907 137.928 133 131z"/>
<path style="fill:#0e0e58; stroke:none;" d="M164 131L164 134L164 131M91.3333 132.667L91.6667 133.333L91.3333 132.667z"/>
<path style="fill:#030319; stroke:none;" d="M122 132L122 177C125.672 168.25 125.672 140.75 122 132z"/>
<path style="fill:#0e0e58; stroke:none;" d="M103 133L102 137C103.303 135.332 103.553 135.008 103 133z"/>
<path style="fill:#171999; stroke:none;" d="M152 133L152 137L152 133z"/>
<path style="fill:#0d0d4f; stroke:none;" d="M90 134L90 137L90 134z"/>
<path style="fill:#121272; stroke:none;" d="M121 134L121 176L116 175L122 177C122 164.781 125.71 145.226 121 134z"/>
<path style="fill:#060626; stroke:none;" d="M165 134L165 156C167.219 150.713 167.219 139.287 165 134z"/>
<path style="fill:#0e0e58; stroke:none;" d="M153.333 136.667L153.667 137.333L153.333 136.667z"/>
<path style="fill:#171999; stroke:none;" d="M102 137L102 156C104.02 151.187 104.02 141.813 102 137z"/>
<path style="fill:#070731; stroke:none;" d="M88 139L88 159C90.0866 154.027 90.0866 143.973 88 139z"/>
<path style="fill:#0d0d4f; stroke:none;" d="M101 139L101 152C102.591 148.209 102.591 142.791 101 139z"/>
<path style="fill:#09093c; stroke:none;" d="M154 143L154 150C155.059 147.466 155.059 145.534 154 143z"/>
<path style="fill:#1a1aa4; stroke:none;" d="M103 154C104.6 164.876 109.948 173.435 121 176L121 161C113.441 160.974 109.278 157.739 103 154z"/>
<path style="fill:#09093c; stroke:none;" d="M164 156L164 159L164 156z"/>
<path style="fill:#101066; stroke:none;" d="M103.333 157.667L103.667 158.333L103.333 157.667z"/>
<path style="fill:#0d0d4f; stroke:none;" d="M163.333 159.667L163.667 160.333L163.333 159.667z"/>
<path style="fill:#101066; stroke:none;" d="M104.333 160.667L104.667 161.333L104.333 160.667z"/>
<path style="fill:#0e0e58; stroke:none;" d="M152 160L151 164L152 160z"/>
<path style="fill:#1a1aa4; stroke:none;" d="M134 168L134 162C132.018 166.724 133 172.91 133 178C142.604 176.502 149.315 170.171 152 161L134 168z"/>
<path style="fill:#09093c; stroke:none;" d="M90 162L90 165L90 162z"/>
<path style="fill:#070731; stroke:none;" d="M106 165L108 168L106 165z"/>
<path style="fill:#0d0d4f; stroke:none;" d="M161 165L160 168L161 165z"/>
<path style="fill:#121272; stroke:none;" d="M157 171L156 174L157 171z"/>
<path style="fill:#0d0d4f; stroke:none;" d="M114.667 174.333L115.333 174.667L114.667 174.333z"/>
<path style="fill:#09093c; stroke:none;" d="M140 175L144 175L140 175z"/>
<path style="fill:#060626; stroke:none;" d="M104 180L107 182L104 180z"/>
<path style="fill:#09093c; stroke:none;" d="M107.667 182.333L108.333 182.667L107.667 182.333z"/>
<path style="fill:#101066; stroke:none;" d="M139 183L142 184L139 183z"/>
<path style="fill:#070731; stroke:none;" d="M111 184L121 186C117.891 183.876 114.696 184.011 111 184z"/>
<path style="fill:#121272; stroke:none;" d="M133 184L133 195C134.863 190.571 133.539 186.658 139 185L133 184z"/>
<path style="fill:#0d0d4f; stroke:none;" d="M121 186L121 207C123.153 201.869 123.153 191.131 121 186z"/>
<path style="fill:#09093c; stroke:none;" d="M133 195L133 205C134.346 201.793 134.346 198.207 133 195z"/>
<path style="fill:#070731; stroke:none;" d="M121 207L121 224C122.883 219.514 122.883 211.486 121 207z"/>
</svg>
